<svg width="23" height="23" viewBox="0 0 23 23" fill="none" xmlns="http://www.w3.org/2000/svg">
<path d="M9.33203 15.1749C9.23829 14.8115 9.04889 14.4799 8.78354 14.2146C8.51819 13.9492 8.18658 13.7598 7.82322 13.6661L1.38164 12.005C1.27174 11.9738 1.17501 11.9077 1.10614 11.8165C1.03726 11.7254 1 11.6142 1 11.5C1 11.3858 1.03726 11.2746 1.10614 11.1835C1.17501 11.0923 1.27174 11.0262 1.38164 10.995L7.82322 9.33285C8.18646 9.2392 8.51798 9.04996 8.78332 8.78481C9.04866 8.51965 9.23813 8.18826 9.33203 7.82509L10.9931 1.3835C11.024 1.27317 11.0901 1.17597 11.1814 1.10672C11.2726 1.03748 11.3841 1 11.4986 1C11.6132 1 11.7246 1.03748 11.8159 1.10672C11.9072 1.17597 11.9733 1.27317 12.0042 1.3835L13.6642 7.82509C13.758 8.18846 13.9474 8.52006 14.2127 8.78542C14.4781 9.05077 14.8097 9.24016 15.173 9.3339L21.6146 10.9939C21.7254 11.0245 21.8231 11.0905 21.8927 11.1819C21.9623 11.2734 22 11.3851 22 11.5C22 11.6149 21.9623 11.7266 21.8927 11.8181C21.8231 11.9095 21.7254 11.9755 21.6146 12.0061L15.173 13.6661C14.8097 13.7598 14.4781 13.9492 14.2127 14.2146C13.9474 14.4799 13.758 14.8115 13.6642 15.1749L12.0032 21.6165C11.9723 21.7268 11.9062 21.824 11.8149 21.8933C11.7236 21.9625 11.6122 22 11.4976 22C11.383 22 11.2716 21.9625 11.1803 21.8933C11.089 21.824 11.0229 21.7268 10.992 21.6165L9.33203 15.1749Z" fill="white"/>
<path d="M19.8979 2.05024V6.25013M21.9978 4.15018H17.798M3.09834 16.7499V18.8498M4.14832 17.7998H2.04837M9.33203 15.1749C9.23829 14.8115 9.04889 14.4799 8.78354 14.2146C8.51819 13.9492 8.18658 13.7598 7.82322 13.6661L1.38164 12.005C1.27174 11.9738 1.17501 11.9077 1.10614 11.8165C1.03726 11.7254 1 11.6142 1 11.5C1 11.3858 1.03726 11.2746 1.10614 11.1835C1.17501 11.0923 1.27174 11.0262 1.38164 10.995L7.82322 9.33285C8.18646 9.2392 8.51798 9.04996 8.78332 8.78481C9.04866 8.51965 9.23813 8.18826 9.33203 7.82509L10.9931 1.3835C11.024 1.27317 11.0901 1.17597 11.1814 1.10672C11.2726 1.03748 11.3841 1 11.4986 1C11.6132 1 11.7246 1.03748 11.8159 1.10672C11.9072 1.17597 11.9733 1.27317 12.0042 1.3835L13.6642 7.82509C13.758 8.18846 13.9474 8.52006 14.2127 8.78542C14.4781 9.05077 14.8097 9.24016 15.173 9.3339L21.6146 10.9939C21.7254 11.0245 21.8231 11.0905 21.8927 11.1819C21.9623 11.2734 22 11.3851 22 11.5C22 11.6149 21.9623 11.7266 21.8927 11.8181C21.8231 11.9095 21.7254 11.9755 21.6146 12.0061L15.173 13.6661C14.8097 13.7598 14.4781 13.9492 14.2127 14.2146C13.9474 14.4799 13.758 14.8115 13.6642 15.1749L12.0032 21.6165C11.9723 21.7268 11.9062 21.824 11.8149 21.8933C11.7236 21.9625 11.6122 22 11.4976 22C11.383 22 11.2716 21.9625 11.1803 21.8933C11.089 21.824 11.0229 21.7268 10.992 21.6165L9.33203 15.1749Z" stroke="white" stroke-width="2" stroke-linecap="round" stroke-linejoin="round"/>
</svg>
