<svg width="19" height="19" viewBox="0 0 19 19" fill="none" xmlns="http://www.w3.org/2000/svg">
<path d="M7.45313 9.94455C7.81101 10.423 8.26759 10.8189 8.79192 11.1053C9.31625 11.3918 9.89605 11.5621 10.492 11.6048C11.088 11.6475 11.6861 11.5615 12.2459 11.3527C12.8057 11.1439 13.3141 10.8171 13.7365 10.3946L16.2365 7.89455C16.9955 7.10871 17.4154 6.0562 17.4059 4.96371C17.3964 3.87123 16.9582 2.82617 16.1857 2.05364C15.4132 1.28111 14.3681 0.842903 13.2756 0.833409C12.1831 0.823916 11.1306 1.24389 10.3448 2.00288L8.91146 3.42788M10.7865 8.27788C10.4286 7.79944 9.972 7.40357 9.44767 7.1171C8.92334 6.83064 8.34354 6.66029 7.74759 6.61761C7.15163 6.57493 6.55347 6.66091 5.99367 6.86973C5.43388 7.07855 4.92553 7.40533 4.50313 7.82788L2.00313 10.3279C1.24414 11.1137 0.82416 12.1662 0.833654 13.2587C0.843147 14.3512 1.28135 15.3963 2.05388 16.1688C2.82642 16.9413 3.87147 17.3795 4.96396 17.389C6.05644 17.3985 7.10895 16.9785 7.89479 16.2196L9.3198 14.7946" stroke="#757575" stroke-width="1.66667" stroke-linecap="round" stroke-linejoin="round"/>
</svg>
