<svg width="19" height="19" viewBox="0 0 19 19" fill="none" xmlns="http://www.w3.org/2000/svg">
<path d="M7.45288 9.94455C7.81076 10.423 8.26735 10.8189 8.79168 11.1053C9.316 11.3918 9.89581 11.5621 10.4918 11.6048C11.0877 11.6475 11.6859 11.5615 12.2457 11.3527C12.8055 11.1439 13.3138 10.8171 13.7362 10.3946L16.2362 7.89455C16.9952 7.10871 17.4152 6.0562 17.4057 4.96371C17.3962 3.87123 16.958 2.82617 16.1855 2.05364C15.4129 1.28111 14.3679 0.842903 13.2754 0.833409C12.1829 0.823916 11.1304 1.24389 10.3446 2.00288L8.91122 3.42788M10.7862 8.27788C10.4283 7.79944 9.97175 7.40357 9.44743 7.1171C8.9231 6.83064 8.3433 6.66029 7.74734 6.61761C7.15139 6.57493 6.55323 6.66091 5.99343 6.86973C5.43363 7.07855 4.92529 7.40533 4.50288 7.82788L2.00288 10.3279C1.24389 11.1137 0.823916 12.1662 0.833409 13.2587C0.842903 14.3512 1.28111 15.3963 2.05364 16.1688C2.82617 16.9413 3.87123 17.3795 4.96371 17.389C6.0562 17.3985 7.10871 16.9785 7.89455 16.2196L9.31955 14.7946" stroke="#757575" stroke-width="1.66667" stroke-linecap="round" stroke-linejoin="round"/>
</svg>
