<svg width="18" height="18" viewBox="0 0 18 18" fill="none" xmlns="http://www.w3.org/2000/svg">
<path d="M7.04816 11.4999C6.97674 11.223 6.83244 10.9704 6.63027 10.7682C6.4281 10.566 6.17544 10.4217 5.89859 10.3503L0.990724 9.08474C0.906991 9.06097 0.833295 9.01054 0.780819 8.9411C0.728343 8.87166 0.699951 8.78699 0.699951 8.69995C0.699951 8.61291 0.728343 8.52824 0.780819 8.4588C0.833295 8.38936 0.906991 8.33893 0.990724 8.31516L5.89859 7.04879C6.17535 6.97744 6.42793 6.83326 6.6301 6.63123C6.83226 6.42921 6.97662 6.17672 7.04816 5.90002L8.31373 0.992143C8.33726 0.90808 8.38764 0.83402 8.45718 0.781264C8.52673 0.728508 8.61163 0.699951 8.69892 0.699951C8.78621 0.699951 8.87111 0.728508 8.94066 0.781264C9.01021 0.83402 9.06059 0.90808 9.08411 0.992143L10.3489 5.90002C10.4203 6.17687 10.5646 6.42952 10.7668 6.6317C10.9689 6.83387 11.2216 6.97817 11.4984 7.04959L16.4063 8.31436C16.4907 8.33764 16.5651 8.38797 16.6182 8.45762C16.6712 8.52727 16.7 8.6124 16.7 8.69995C16.7 8.7875 16.6712 8.87263 16.6182 8.94228C16.5651 9.01193 16.4907 9.06226 16.4063 9.08554L11.4984 10.3503C11.2216 10.4217 10.9689 10.566 10.7668 10.7682C10.5646 10.9704 10.4203 11.223 10.3489 11.4999L9.08331 16.4078C9.05979 16.4918 9.00941 16.5659 8.93986 16.6186C8.87031 16.6714 8.78541 16.7 8.69812 16.7C8.61083 16.7 8.52593 16.6714 8.45638 16.6186C8.38684 16.5659 8.33646 16.4918 8.31293 16.4078L7.04816 11.4999Z" fill="white"/>
<path d="M15.0984 1.50013V4.70005Z" fill="white"/>
<path d="M16.6984 3.10009H13.4984Z" fill="white"/>
<path d="M2.29874 12.6998V14.2998Z" fill="white"/>
<path d="M3.09872 13.4998H1.49876Z" fill="white"/>
<path d="M15.0984 1.50013V4.70005M16.6984 3.10009H13.4984M2.29874 12.6998V14.2998M3.09872 13.4998H1.49876M7.04816 11.4999C6.97674 11.223 6.83244 10.9704 6.63027 10.7682C6.4281 10.566 6.17544 10.4217 5.89859 10.3503L0.990724 9.08474C0.906991 9.06097 0.833295 9.01054 0.780819 8.9411C0.728343 8.87166 0.699951 8.78699 0.699951 8.69995C0.699951 8.61291 0.728343 8.52824 0.780819 8.4588C0.833295 8.38936 0.906991 8.33893 0.990724 8.31516L5.89859 7.04879C6.17535 6.97744 6.42793 6.83326 6.6301 6.63123C6.83226 6.42921 6.97662 6.17672 7.04816 5.90002L8.31373 0.992143C8.33726 0.90808 8.38764 0.83402 8.45718 0.781264C8.52673 0.728508 8.61163 0.699951 8.69892 0.699951C8.78621 0.699951 8.87111 0.728508 8.94066 0.781264C9.01021 0.83402 9.06059 0.90808 9.08411 0.992143L10.3489 5.90002C10.4203 6.17687 10.5646 6.42952 10.7668 6.6317C10.9689 6.83387 11.2216 6.97817 11.4984 7.04959L16.4063 8.31436C16.4907 8.33764 16.5651 8.38797 16.6182 8.45762C16.6712 8.52727 16.7 8.6124 16.7 8.69995C16.7 8.7875 16.6712 8.87263 16.6182 8.94228C16.5651 9.01193 16.4907 9.06226 16.4063 9.08554L11.4984 10.3503C11.2216 10.4217 10.9689 10.566 10.7668 10.7682C10.5646 10.9704 10.4203 11.223 10.3489 11.4999L9.08331 16.4078C9.05979 16.4918 9.00941 16.5659 8.93986 16.6186C8.87031 16.6714 8.78541 16.7 8.69812 16.7C8.61083 16.7 8.52593 16.6714 8.45638 16.6186C8.38684 16.5659 8.33646 16.4918 8.31293 16.4078L7.04816 11.4999Z" stroke="white" stroke-width="1.4" stroke-linecap="round" stroke-linejoin="round"/>
</svg>
