<svg width="39" height="39" viewBox="0 0 39 39" fill="none" xmlns="http://www.w3.org/2000/svg">
<foreignObject x="-17.5" y="-17.5" width="74" height="74"><div xmlns="http://www.w3.org/1999/xhtml" style="backdrop-filter:blur(8.75px);clip-path:url(#bgblur_0_427_4822_clip_path);height:100%;width:100%"></div></foreignObject><g data-figma-bg-blur-radius="17.5">
<path d="M17.9515 22.1249C17.8845 21.8654 17.7492 21.6285 17.5597 21.439C17.3701 21.2495 17.1333 21.1142 16.8737 21.0472L12.2726 19.8607C12.1941 19.8385 12.125 19.7912 12.0758 19.7261C12.0266 19.661 12 19.5816 12 19.5C12 19.4184 12.0266 19.339 12.0758 19.2739C12.125 19.2088 12.1941 19.1615 12.2726 19.1393L16.8737 17.952C17.1332 17.8851 17.37 17.75 17.5595 17.5606C17.749 17.3712 17.8844 17.1345 17.9515 16.8751L19.1379 12.2739C19.16 12.1951 19.2072 12.1257 19.2724 12.0762C19.3376 12.0268 19.4172 12 19.499 12C19.5809 12 19.6605 12.0268 19.7257 12.0762C19.7909 12.1257 19.8381 12.1951 19.8602 12.2739L21.0459 16.8751C21.1128 17.1346 21.2481 17.3715 21.4376 17.561C21.6272 17.7505 21.864 17.8858 22.1236 17.9528L26.7247 19.1385C26.8038 19.1603 26.8736 19.2075 26.9233 19.2728C26.9731 19.3381 27 19.4179 27 19.5C27 19.5821 26.9731 19.6619 26.9233 19.7272C26.8736 19.7925 26.8038 19.8397 26.7247 19.8615L22.1236 21.0472C21.864 21.1142 21.6272 21.2495 21.4376 21.439C21.2481 21.6285 21.1128 21.8654 21.0459 22.1249L19.8594 26.7261C19.8373 26.8049 19.7901 26.8743 19.7249 26.9238C19.6597 26.9732 19.5801 27 19.4983 27C19.4164 27 19.3369 26.9732 19.2717 26.9238C19.2065 26.8743 19.1592 26.8049 19.1372 26.7261L17.9515 22.1249Z" fill="#3982F0"/>
<path d="M25.4985 12.7502V15.7501M26.9985 14.2501H23.9986M13.4989 23.2499V24.7499M14.2488 23.9999H12.7489M17.9515 22.1249C17.8845 21.8654 17.7492 21.6285 17.5597 21.439C17.3701 21.2495 17.1333 21.1142 16.8737 21.0472L12.2726 19.8607C12.1941 19.8385 12.125 19.7912 12.0758 19.7261C12.0266 19.661 12 19.5816 12 19.5C12 19.4184 12.0266 19.339 12.0758 19.2739C12.125 19.2088 12.1941 19.1615 12.2726 19.1393L16.8737 17.952C17.1332 17.8851 17.37 17.75 17.5595 17.5606C17.749 17.3712 17.8844 17.1345 17.9515 16.8751L19.1379 12.2739C19.16 12.1951 19.2072 12.1257 19.2724 12.0762C19.3376 12.0268 19.4172 12 19.499 12C19.5809 12 19.6605 12.0268 19.7257 12.0762C19.7909 12.1257 19.8381 12.1951 19.8602 12.2739L21.0459 16.8751C21.1128 17.1346 21.2481 17.3715 21.4376 17.561C21.6272 17.7505 21.864 17.8858 22.1236 17.9528L26.7247 19.1385C26.8038 19.1603 26.8736 19.2075 26.9233 19.2728C26.9731 19.3381 27 19.4179 27 19.5C27 19.5821 26.9731 19.6619 26.9233 19.7272C26.8736 19.7925 26.8038 19.8397 26.7247 19.8615L22.1236 21.0472C21.864 21.1142 21.6272 21.2495 21.4376 21.439C21.2481 21.6285 21.1128 21.8654 21.0459 22.1249L19.8594 26.7261C19.8373 26.8049 19.7901 26.8743 19.7249 26.9238C19.6597 26.9732 19.5801 27 19.4983 27C19.4164 27 19.3369 26.9732 19.2717 26.9238C19.2065 26.8743 19.1592 26.8049 19.1372 26.7261L17.9515 22.1249Z" stroke="#3982F0" stroke-width="1.4" stroke-linecap="round" stroke-linejoin="round"/>
</g>
<defs>
<clipPath id="bgblur_0_427_4822_clip_path" transform="translate(17.5 17.5)"><path d="M0 19.5C0 8.73045 8.73045 0 19.5 0V0C30.2696 0 39 8.73045 39 19.5V19.5C39 30.2696 30.2696 39 19.5 39V39C8.73045 39 0 30.2696 0 19.5V19.5Z"/>
</clipPath></defs>
</svg>
